<svg id="Layer_1" data-name="Layer 1" xmlns="http://www.w3.org/2000/svg" viewBox="0 0 216.64 155.45"><defs><style>.cls-1{fill:#1e6131;}.cls-2{fill:#29377c;}.cls-3{fill:#231f20;}</style></defs><path class="cls-1" d="M81.87,70.68v1.75H85.3v2.4H81.87v4H79V68h7v2.69Z"/><path class="cls-1" d="M93,78.81l-2.89-4.69v4.69H87.27l0-10.8h4.1a3.71,3.71,0,0,1,4,3.52,3.25,3.25,0,0,1-1.87,3l2.9,4.33Zm-2.9-6h1.17a1.1,1.1,0,0,0,1.17-1.08,1.12,1.12,0,0,0-1.17-1.09H90.12Z"/><path class="cls-1" d="M100.24,70.68v1.51h3.43v2.39h-3.43v1.55h4.17v2.68h-7V68h7v2.67Z"/><path class="cls-1" d="M108.84,70.68v1.51h3.43v2.39h-3.43v1.55H113v2.68h-7V68h7v2.67Z"/><path class="cls-1" d="M121.6,76.12v2.69h-7V68h2.87v8.11Z"/><path class="cls-1" d="M129.74,77.56h-4l-.55,1.25H122l5-10.93h1.36l5,10.93h-3.15Zm-.91-2.1-1.1-2.56-1.12,2.56Z"/><path class="cls-1" d="M143.84,68V78.92h-.91l-5.56-5.38v5.28h-2.86V67.91h.92L141,73.27V68Z"/><path class="cls-1" d="M145.25,73.41a5.71,5.71,0,0,1,5.95-5.65,6.3,6.3,0,0,1,4,1.63l-1.65,2.12a3.67,3.67,0,0,0-2.34-1,2.92,2.92,0,1,0-.06,5.83,3.63,3.63,0,0,0,2.41-1l1.64,2.18a6,6,0,0,1-4.05,1.59A5.73,5.73,0,0,1,145.25,73.41Z"/><path class="cls-1" d="M156.41,68h2.87v10.8h-2.87Z"/><path class="cls-1" d="M170.48,68V78.92h-.91L164,73.54v5.28h-2.87V67.91h.93l5.53,5.36V68Z"/><path class="cls-1" d="M183.46,73.66a5.29,5.29,0,0,1-5.55,5.41,5.67,5.67,0,1,1-.07-11.32,6.3,6.3,0,0,1,3.85,1.43l-1.59,2.18a3.46,3.46,0,0,0-2.26-.93,3,3,0,1,0,.19,6c1.3,0,2.24-.63,2.28-1.66h-2.48V72.61h5.54A6.38,6.38,0,0,1,183.46,73.66Z"/><path class="cls-2" d="M33.06,68.5h5V87.18h-5Z"/><path class="cls-2" d="M41.1,80.39V68.5h5V80.38A2.65,2.65,0,0,0,48.84,83a2.69,2.69,0,0,0,2.77-2.58V68.5h5V80.39c0,4.29-3.48,7.31-7.76,7.31S41.1,84.68,41.1,80.39Z"/><path class="cls-2" d="M73.87,81.48a5.91,5.91,0,0,1-6.22,5.7h-8V68.5h6.14c3.38,0,5.86,2.28,5.86,4.85,0,1.93-1.27,3.31-2,3.31A4.68,4.68,0,0,1,73.87,81.48Zm-8.2-8.67H64.45v2.93h1.18c1.08,0,1.89-.53,1.89-1.5S66.73,72.81,65.67,72.81Zm3.45,8.08c0-1.09-.79-1.75-2.19-1.75l-2.48,0v3.55H66.9C68,82.67,69.12,82.11,69.12,80.89Z"/><path class="cls-3" d="M78.91,80.58h2.63A2.53,2.53,0,0,1,84.16,83a2.56,2.56,0,0,1-2.62,2.47h-.78v2H78.91ZM82.38,83a.77.77,0,0,0-.84-.74h-.78v1.49h.78A.78.78,0,0,0,82.38,83Z"/><path class="cls-3" d="M88.66,87.52l-1.85-3v3H85V80.58h2.64a2.38,2.38,0,0,1,2.57,2.25A2.11,2.11,0,0,1,89,84.74l1.86,2.78ZM86.8,83.63h.75a.7.7,0,1,0,0-1.39H86.8Z"/><path class="cls-3" d="M91.19,84.06A3.82,3.82,0,1,1,95,87.7,3.68,3.68,0,0,1,91.19,84.06Zm5.77,0A2,2,0,1,0,95,85.94,1.89,1.89,0,0,0,97,84.05Z"/><path class="cls-3" d="M107.18,80.51v7h-1.84V84.77l-1.87,2.64h0l-1.88-2.64v2.75H99.74v-7h.74l3,4.09,3-4.09Z"/><path class="cls-3" d="M108.1,84.06a3.82,3.82,0,1,1,3.81,3.64A3.67,3.67,0,0,1,108.1,84.06Zm5.76,0a1.95,1.95,0,1,0-2,1.89A1.89,1.89,0,0,0,113.86,84.05Z"/><path class="cls-3" d="M121.06,82.3h-1.67v5.22h-1.85V82.3h-1.66V80.58h5.18Z"/><path class="cls-3" d="M121.85,80.58h1.84v6.94h-1.84Z"/><path class="cls-3" d="M124.6,84.06a3.82,3.82,0,1,1,3.81,3.64A3.67,3.67,0,0,1,124.6,84.06Zm5.76,0a1.95,1.95,0,1,0-2,1.89A1.89,1.89,0,0,0,130.36,84.05Z"/><path class="cls-3" d="M139.15,80.57v7h-.59L135,84.13v3.4h-1.85v-7h.6L137.3,84V80.57Z"/><path class="cls-3" d="M142.7,86.35l1.11-1.1a1.69,1.69,0,0,0,1.41.69c.4,0,.78-.14.78-.43s-.71-.67-1.39-1a2.24,2.24,0,0,1-1.64-2,2.27,2.27,0,0,1,2.46-2.06,2.22,2.22,0,0,1,2.16,1.19l-1.06,1a1.32,1.32,0,0,0-1.07-.52c-.38,0-.65.19-.65.43s.49.42,1.24.74c1.08.45,1.8,1.12,1.8,2.14a2.36,2.36,0,0,1-2.62,2.15A2.76,2.76,0,0,1,142.7,86.35Z"/><path class="cls-3" d="M148.4,84.06a3.82,3.82,0,1,1,3.81,3.64A3.68,3.68,0,0,1,148.4,84.06Zm5.76,0a1.95,1.95,0,1,0-1.94,1.89A1.88,1.88,0,0,0,154.16,84.05Z"/><path class="cls-3" d="M156.64,84.05a3.68,3.68,0,0,1,3.83-3.64,4.1,4.1,0,0,1,2.57,1L162,82.83a2.36,2.36,0,0,0-1.51-.65,1.88,1.88,0,1,0,0,3.75,2.35,2.35,0,0,0,1.55-.67l1,1.4a3.84,3.84,0,0,1-2.6,1A3.69,3.69,0,0,1,156.64,84.05Z"/><path class="cls-3" d="M163.83,80.58h1.85v6.94h-1.85Z"/><path class="cls-3" d="M168.71,82.29v1h2.21V84.8h-2.21v1h2.68v1.72h-4.5V80.58h4.5v1.71Z"/><path class="cls-3" d="M177.18,82.3h-1.66v5.22h-1.85V82.3H172V80.58h5.18Z"/><path class="cls-3" d="M179.6,84.52l-2.14-3.94h2.09l1,2,1-2h2.1l-2.15,3.94v3H179.6Z"/></svg>