<?xml version="1.0" encoding="UTF-8"?>
<svg id="Layer_2" data-name="Layer 2" xmlns="http://www.w3.org/2000/svg" viewBox="0 0 356.18 364.55">
  <defs>
    <style>
      .cls-1 {
        fill: #348948;
      }

      .cls-1, .cls-2, .cls-3, .cls-4 {
        fill-rule: evenodd;
      }

      .cls-5 {
        fill: #f4a086;
      }

      .cls-6 {
        fill: #b4e7fb;
      }

      .cls-7 {
        fill: #f7b690;
      }

      .cls-2 {
        fill: #0a3c5f;
      }

      .cls-3 {
        fill: #222b41;
      }

      .cls-8 {
        fill: #3c79a6;
      }

      .cls-4 {
        fill: #283357;
      }
    </style>
  </defs>
  <g>
    <path class="cls-7" d="m61.83,203.89c-.59,5.66-.93,11.67,1.61,16.73,2.54,5.06,8.97,8.49,13.83,5.74,2.74-1.55,4.31-4.57,5.73-7.42,7.99-16.04,15.97-32.07,23.96-48.11,6.58-13.22,13.35-27.25,12.51-42.07-.39-6.85-2.48-13.67-6.52-19.14-3.53-4.78-11.19-12.38-16.47-6.8-5.25,5.56-8.86,15.27-12.18,22.15-7.67,15.89-13.59,32.68-17.6,49.93-2.22,9.55-3.85,19.24-4.88,29Z"/>
    <path class="cls-1" d="m119.41,131.9c-.43-7.62-2.76-15.22-7.26-21.3-3.93-5.32-6.22-18.67-12.09-12.46-5.84,6.19-16.09,21.88-19.79,29.54-4.87,10.08-9.07,20.49-12.64,31.12l38.29,19.03c7.18-14.45,14.39-29.77,13.48-45.93Z"/>
    <path class="cls-7" d="m63.03,202.78c3.88-4.85,10.58-6.55,16.66-5.85,6.08.69,11.75,3.42,17.27,6.11,10.14,4.93,20.27,9.89,30.39,14.84,10.46,5.11,20.91,10.23,31.37,15.34,1.63.8,3.42,1.78,3.95,3.55.56,1.9-.67,3.96-2.34,4.95-1.67.99-3.68,1.15-5.61,1.25-15.69.84-31.49-.7-46.77-4.44-7.72-1.89-15.3-4.35-22.67-7.35-6.33-2.58-15.32-5.43-20.44-10.2-4.89-4.56-6.13-12.81-1.81-18.2Z"/>
  </g>
  <g>
    <path class="cls-3" d="m128.69,238.92c11.65-1.75,66.96-1.75,78.61,0,14.49,2.17,12.31,20.66,10.49,31.72-1.99,12.07-4.43,25.03-13.08,33.46-8.45,8.24-64.96,8.24-73.42,0-8.65-8.43-11.09-21.39-13.08-33.46-1.83-11.06-4.01-29.55,10.49-31.72Z"/>
    <path class="cls-3" d="m331.64,289.62c6.08,6.88,10.05,18.15,4.78,25.3-4.47,6.05-129.34-5.85-147.81-5.85-13.12-17.14-12.6-43.17,21.02-60.72,7.19-3.75,15.09.19,22.91,1.88,22.62,4.88,83.98,22.31,99.1,39.39Z"/>
    <path class="cls-3" d="m61.63,167.46c-9.02-.8-18.98,2.79-23.38,10.91-3.59,6.64-2.82,15.03.2,21.96,3.03,6.93,8.04,12.7,12.98,18.36,71.4,81.75,72.56,85.45,84.49,88.74,20.34,5.59,44.91-.09,26.87-47.97-2.91-7.72-78.77-89.99-101.18-91.99Z"/>
    <path class="cls-7" d="m125.17,334.65c-4.75-2.84-14.18-15.4-25.21-31.94l20.77-7.5c6.79,24.69,9.43,42.42,4.45,39.44Z"/>
    <path class="cls-4" d="m43.55,168.82c12.67-6.26,25.15-4.63,35.27,12.17,13.64,22.65,31.93,77.94,41.91,114.21l-23.82,11.07c-15.08-35.27-44.81-81.02-56.33-101.81-6.46-11.65-7.02-30.7,2.98-35.64Z"/>
    <g>
      <path class="cls-7" d="m188.16,311.58l10.31,19.76c-15.4,1.04-27.8,1.22-33.02-1-5.25-2.23,5.24-10.1,22.71-18.76Z"/>
      <path class="cls-4" d="m310.08,289.28c19.26,0,28.77,10.15,28.77,17.3,0,12.16-7.32,25.15-25.56,25.15-23.19,0-81.31-.81-116.95,1.68l-8.18-21.84c26.3-13.02,93.75-22.29,121.92-22.29Z"/>
      <path class="cls-4" d="m157.82,327.56c.7-.45,6.01-8.47,9.47-9.89,2.01-.82,4.72-2.13,6.87-1.05,2.44,1.22,2.55,4.7,4,6.8,1.09,1.57,2.58,2.86,4.27,3.72l3.37-4.64c11.92,5.64,2.45,19.85,14.41,25.7,2.89,1.41,6.04,2.4,8.52,4.48,2.48,2.08,4.05,5.87,2.4,8.68-.62,1.06-1.61,1.79-2.73,2.24l-38.53-19.16s-.23-7.99.87-8.89c-1.31.54-4.38,2-5.77,2.03l-7.15-10.01Z"/>
    </g>
    <path class="cls-4" d="m99.11,335.69c-.13-3.27,1.2-5.97,2.57-6.74,1.37-.76,3.5-6.24,6.34-14.25,1.3-3.67,8.52-4.69,12.12,1.62,1.17,2.05,2.26,3.38,3.57,3.33,1.1-.04,2.33-2,3.39-.7.93,1.14,1.18,4.16,1.42,6.31.41,3.7.78,7.43,1.17,11.14.09.82.17,1.68.2,2.53h-30.12c-.36-.91-.61-2.01-.66-3.24Z"/>
  </g>
  <g>
    <path class="cls-7" d="m274.17,203.89c.59,5.66.93,11.67-1.61,16.73-2.54,5.06-8.97,8.49-13.83,5.74-2.74-1.55-4.31-4.57-5.73-7.42-7.99-16.04-15.97-32.07-23.96-48.11-6.58-13.22-13.35-27.25-12.51-42.07.39-6.85,2.48-13.67,6.52-19.14,3.53-4.78,11.19-12.38,16.47-6.8,5.25,5.56,8.86,15.27,12.18,22.15,7.67,15.89,13.59,32.68,17.6,49.93,2.22,9.55,3.85,19.24,4.88,29Z"/>
    <path class="cls-1" d="m216.53,131.9c.43-7.62,2.76-15.22,7.26-21.3,3.92-5.32,6.22-18.67,12.09-12.46,5.84,6.19,16.09,21.88,19.79,29.54,4.87,10.08,9.07,20.49,12.64,31.12l-38.29,19.03c-7.19-14.45-14.39-29.77-13.48-45.93Z"/>
    <path class="cls-7" d="m271.95,205.58c-3.88-4.85-10.58-6.55-16.66-5.85-6.08.69-11.75,3.42-17.27,6.11-10.14,4.93-20.27,9.89-30.39,14.84-10.46,5.11-20.91,10.23-31.37,15.34-1.63.8-3.42,1.78-3.95,3.55-.56,1.9.67,3.96,2.34,4.96,1.67.99,3.68,1.15,5.61,1.25,15.69.84,31.49-.7,46.77-4.44,7.71-1.89,15.3-4.35,22.67-7.35,6.33-2.58,15.32-5.43,20.44-10.2,4.89-4.56,6.13-12.81,1.81-18.2Z"/>
  </g>
  <path class="cls-1" d="m98.5,99.91c3.73-4.63,9.35-7.16,14.85-9.22,16.16-6.08,53.25-21.97,54.65-21.94,1.4-.03,38.48,15.87,54.65,21.94,5.5,2.07,11.12,4.59,14.85,9.22,4.98,6.18,5.63,15.05,3.84,22.85-1.79,7.8-5.69,14.88-9.1,22.09-4.25,8.99-7.77,18.35-10.53,27.93-4.99,17.31-7.51,35.38-7.43,53.43.02,5.53,2.89,14.9,1.23,20.12-2.08,6.56-13.12,8.04-18.69,8.78-9.55,1.26-19.2,1.68-28.81,1.27-9.62.41-19.27,0-28.81-1.27-5.57-.74-16.61-2.22-18.69-8.78-1.66-5.22,1.21-14.58,1.23-20.12.08-18.05-2.44-36.12-7.43-53.43-2.76-9.58-6.28-18.94-10.53-27.93-3.41-7.21-7.31-14.29-9.1-22.09-1.79-7.8-1.14-16.67,3.84-22.85Z"/>
  <g>
    <path class="cls-5" d="m155.81,66.81c1.51-4.97,2.32-14.27,5.32-17.57,1.8-1.99,11.2-1.99,13,0,3,3.31,3.81,12.6,5.32,17.57,1.69,5.57,3.16,12.25,1.4,17.76-1.23,3.86-3.85,6.17-6.5,6.95-2.21.65-11.22.65-13.43,0-2.65-.78-5.26-3.09-6.5-6.95-1.76-5.51-.29-12.19,1.4-17.76Z"/>
    <path class="cls-7" d="m147.73,24.94c3.02-9.03,36.77-9.03,39.8,0,2.41,7.19,2.75,15.29,1.38,22.86-1.29,7.14-4.11,13.62-8.06,18.98-2.69,3.66-6.2,9.05-10.12,10.87h-6.2c-3.92-1.82-7.43-7.21-10.12-10.87-3.95-5.36-6.76-11.84-8.06-18.98-1.37-7.57-1.03-15.67,1.38-22.86Z"/>
    <path class="cls-2" d="m148.74,48.9c-.42-2.14-1.34-4.15-1.74-6.29-.41-2.14-1.15-4.6.37-6.12,1.38,6.55,4.09,13.03,6.19,19.38.45,1.38.95,2.79,1.95,3.83,1.22,1.27,2.99,1.77,4.71,2.08,1.88.34,6.84-1.83,7.42-1.79.57-.04,5.54,2.13,7.42,1.79,1.71-.31,3.49-.81,4.71-2.08.99-1.04,1.49-2.45,1.95-3.83,2.1-6.35,3.84-12.82,5.23-19.38,1.52,1.53,1.73,3.98,1.32,6.12-.41,2.14-1.32,4.15-1.74,6.29-.03.17-.06.34-.09.51-.2,1.4-.16,2.9.41,4.21.26.6.61.99.63,1.65.02.61-.24,1.37-.35,1.97-.55,2.9-1.37,5.75-2.43,8.49-1.06,2.75-2.36,5.4-3.87,7.92-.76,1.26-1.57,2.49-2.43,3.67-.36.5-2.05,3.31-2.62,3.31l-6.59,1.93h-3.07l-6.59-1.93c-.57,0-2.26-2.82-2.62-3.31-.86-1.19-1.67-2.41-2.43-3.67-1.51-2.52-2.81-5.17-3.87-7.92-1.06-2.75-1.88-5.59-2.43-8.49-.12-.6-.37-1.36-.35-1.97.02-.66.37-1.05.63-1.65.57-1.31.61-2.82.41-4.21-.02-.17-.05-.34-.09-.51Z"/>
    <path class="cls-2" d="m134.57,6.23c4.11-5.59,11.67-7.78,17.74-5.08,2.55,1.13,4.85,3.03,7.55,3.61,3.16.68,6.37-.54,9.38-1.78,3.01-1.24,6.17-2.55,9.36-2.05s6.29,3.53,5.88,7.02c4.29-1.74,9.51-.28,12.52,3.49,3.01,3.78,3.63,9.62,1.48,14.05-1.3,2.67-3.47,4.81-4.42,7.66-1.08,3.25.17,11.06-3.62,12.55-2.92,1.15-4.54-22.64-12.74-23.24-4.35,4.76-11.58,5.98-17.03,2.86-2.04-1.17-4.21-2.93-6.41-2.17-1.47.51-3.27,1.23-4.22,2.57-2.28,3.23-1.62,17.96-4.77,20.39-1.69-5.2-2.35-10.79-1.98-16.3-1.43.04-2.86-.2-4.19-.75-3.87-1.62-6.76.17-7.56-4.28-.8-4.45.42-15.02,3.02-18.55Z"/>
    <path class="cls-7" d="m192.71,47.22c.81-1.54,1.49-3.3,1.26-5.06-.23-1.77-1.65-3.44-3.27-3.24-1,.13-1.84.92-2.36,1.86-.51.94-.75,2.03-.98,3.1-.4,1.87-.8,3.73-1.2,5.6-.34,1.57-.54,3.56.68,4.48,2.22,1.67,4.99-5.07,5.87-6.75Z"/>
    <path class="cls-7" d="m142.79,47.22c-.81-1.54-1.49-3.3-1.26-5.06.23-1.77,1.65-3.44,3.27-3.24,1,.13,1.84.92,2.36,1.86.51.94.75,2.03.98,3.1.4,1.87.8,3.73,1.2,5.6.34,1.57.54,3.56-.68,4.48-2.22,1.67-4.99-5.07-5.87-6.75Z"/>
  </g>
  <path class="cls-6" d="m117.8,248.37h102.36c4.79,0,8.78-3.76,9.18-8.65l5.31-64.83c.45-5.51-3.79-10.23-9.18-10.23h-112.98c-5.39,0-9.63,4.72-9.18,10.23l5.31,64.83c.4,4.89,4.39,8.65,9.18,8.65Z"/>
  <path class="cls-8" d="m234.42,177.66c-.97-4.11-4.58-7.21-8.95-7.21h-112.98c-4.37,0-7.98,3.1-8.95,7.21l-.23-2.77c-.45-5.51,3.79-10.23,9.18-10.23h112.98c5.39,0,9.63,4.72,9.18,10.23l-.23,2.77Z"/>
</svg>