<?xml version="1.0" encoding="utf-8"?>
<!-- Generator: Adobe Illustrator 27.4.1, SVG Export Plug-In . SVG Version: 6.00 Build 0)  -->
<svg version="1.1" id="Layer_1" xmlns="http://www.w3.org/2000/svg" xmlns:xlink="http://www.w3.org/1999/xlink" x="0px" y="0px"
	 viewBox="0 0 216.6 155.4" style="enable-background:new 0 0 216.6 155.4;" xml:space="preserve">
<style type="text/css">
	.st0{fill:#FFFFFF;}
</style>
<path class="st0" d="M81.9,70.7v1.8h3.4v2.4h-3.4v4H79V68h7v2.7L81.9,70.7z"/>
<path class="st0" d="M93,78.8l-2.9-4.7v4.7h-2.8V68h4.1c2-0.2,3.8,1.4,4,3.4c0,0,0,0.1,0,0.1c0,1.3-0.7,2.5-1.9,3l2.9,4.3L93,78.8z
	 M90.1,72.8h1.2c0.6,0,1.1-0.4,1.2-1c0,0,0,0,0-0.1c0-0.6-0.5-1.1-1.1-1.1c0,0,0,0,0,0h-1.1L90.1,72.8z"/>
<path class="st0" d="M100.2,70.7v1.5h3.4v2.4h-3.4v1.6h4.2v2.7h-7V68h7v2.7L100.2,70.7z"/>
<path class="st0" d="M108.8,70.7v1.5h3.4v2.4h-3.4v1.6h4.2v2.7h-7V68h7v2.7L108.8,70.7z"/>
<path class="st0" d="M121.6,76.1v2.7h-7V68h2.9v8.1L121.6,76.1z"/>
<path class="st0" d="M129.7,77.6h-4l-0.6,1.2H122l5-10.9h1.4l5,10.9h-3.1L129.7,77.6z M128.8,75.5l-1.1-2.6l-1.1,2.6H128.8z"/>
<path class="st0" d="M143.8,68v10.9h-0.9l-5.6-5.4v5.3h-2.9V67.9h0.9l5.6,5.4V68H143.8z"/>
<path class="st0" d="M145.2,73.4c0-3.2,2.6-5.7,5.8-5.7c0.1,0,0.1,0,0.2,0c1.5,0.1,2.9,0.6,4,1.6l-1.6,2.1c-0.6-0.6-1.5-1-2.3-1
	c-1.6-0.1-3,1.1-3.1,2.7c-0.1,1.6,1.1,3,2.7,3.1c0.1,0,0.2,0,0.3,0c0.9,0,1.8-0.4,2.4-1l1.6,2.2c-1.1,1-2.5,1.6-4.1,1.6
	c-3.2,0.1-5.8-2.4-5.9-5.6C145.3,73.5,145.3,73.5,145.2,73.4z"/>
<path class="st0" d="M156.4,68h2.9v10.8h-2.9V68z"/>
<path class="st0" d="M170.5,68v10.9h-0.9l-5.6-5.4v5.3h-2.9V67.9h0.9l5.5,5.4V68H170.5z"/>
<path class="st0" d="M183.5,73.7c0.1,2.9-2.2,5.3-5.2,5.4c-0.1,0-0.3,0-0.4,0c-3.1,0.2-5.8-2.2-6-5.3c-0.2-3.1,2.2-5.8,5.3-6
	c0.2,0,0.4,0,0.7,0c1.4,0,2.8,0.5,3.9,1.4l-1.6,2.2c-0.6-0.6-1.4-0.9-2.3-0.9c-1.7,0.1-3,1.4-2.9,3.1s1.4,3,3.1,2.9
	c1.3,0,2.2-0.6,2.3-1.7h-2.5v-2.2h5.5C183.4,73,183.5,73.3,183.5,73.7z"/>
<path class="st0" d="M33.1,68.5h5v18.7h-5V68.5z"/>
<path class="st0" d="M41.1,80.4V68.5h5v11.9c0,1.5,1.2,2.6,2.7,2.6c0,0,0,0,0.1,0c1.5,0,2.7-1.1,2.8-2.6V68.5h5v11.9
	c0,4.3-3.5,7.3-7.8,7.3S41.1,84.7,41.1,80.4z"/>
<path class="st0" d="M73.9,81.5c-0.1,3.3-2.8,5.8-6.1,5.7c0,0-0.1,0-0.1,0h-8V68.5h6.1c3.4,0,5.9,2.3,5.9,4.8c0,1.9-1.3,3.3-2,3.3
	C72.1,76.9,74,79,73.9,81.5z M65.7,72.8h-1.2v2.9h1.2c1.1,0,1.9-0.5,1.9-1.5S66.7,72.8,65.7,72.8z M69.1,80.9c0-1.1-0.8-1.8-2.2-1.8
	h-2.5v3.6h2.5C68,82.7,69.1,82.1,69.1,80.9z"/>
<path class="st0" d="M78.9,80.6h2.6c1.4-0.1,2.6,1,2.6,2.4c0,1.4-1.2,2.5-2.6,2.5h-0.8v2h-1.8V80.6z M82.4,83c0-0.4-0.4-0.8-0.8-0.7
	c0,0,0,0,0,0h-0.8v1.5h0.8C82,83.8,82.3,83.5,82.4,83C82.4,83,82.4,83,82.4,83z"/>
<path class="st0" d="M88.7,87.5l-1.8-3v3H85v-6.9h2.6c1.3-0.1,2.5,0.9,2.6,2.2c0,0,0,0,0,0.1c0,0.8-0.5,1.6-1.2,1.9l1.9,2.8H88.7z
	 M86.8,83.6h0.8c0.4,0,0.7-0.2,0.8-0.6s-0.2-0.7-0.6-0.8c-0.1,0-0.1,0-0.2,0h-0.8V83.6z"/>
<path class="st0" d="M91.2,84.1c-0.1-2.1,1.5-3.9,3.6-4c2.1-0.1,3.9,1.5,4,3.6s-1.5,3.9-3.6,4c-0.1,0-0.1,0-0.2,0
	C93,87.8,91.3,86.2,91.2,84.1C91.2,84.1,91.2,84.1,91.2,84.1z M97,84.1c0.1-1.1-0.8-2-1.9-2.1s-2,0.8-2.1,1.9
	c-0.1,1.1,0.8,2,1.9,2.1c0.1,0,0.1,0,0.2,0c1,0.1,1.9-0.7,2-1.8C97,84.1,97,84.1,97,84.1L97,84.1z"/>
<path class="st0" d="M107.2,80.5v7h-1.8v-2.7l-1.9,2.6l0,0l-1.9-2.6v2.8h-1.9v-7h0.7l3,4.1l3-4.1L107.2,80.5z"/>
<path class="st0" d="M108.1,84.1c-0.1-2.1,1.5-3.9,3.6-4c2.1-0.1,3.9,1.5,4,3.6s-1.5,3.9-3.6,4c-0.1,0-0.1,0-0.2,0
	c-2,0.1-3.7-1.5-3.8-3.5C108.1,84.1,108.1,84.1,108.1,84.1z M113.9,84.1c0-1.1-0.8-2-1.9-2c-1.1,0-2,0.8-2,1.9c0,1.1,0.8,2,1.9,2
	c0,0,0,0,0,0c1,0.1,1.9-0.7,2-1.8C113.9,84.1,113.9,84.1,113.9,84.1L113.9,84.1z"/>
<path class="st0" d="M121.1,82.3h-1.7v5.2h-1.8v-5.2h-1.7v-1.7h5.2V82.3z"/>
<path class="st0" d="M121.8,80.6h1.8v6.9h-1.8V80.6z"/>
<path class="st0" d="M124.6,84.1c-0.1-2.1,1.5-3.9,3.6-4c2.1-0.1,3.9,1.5,4,3.6c0.1,2.1-1.5,3.9-3.6,4c-0.1,0-0.1,0-0.2,0
	c-2,0.1-3.7-1.5-3.8-3.5C124.6,84.1,124.6,84.1,124.6,84.1z M130.4,84.1c0-1.1-0.8-2-1.9-2c-1.1,0-2,0.8-2,1.9c0,1.1,0.8,2,1.9,2
	c0,0,0,0,0,0c1,0.1,1.9-0.7,2-1.8C130.4,84.1,130.4,84.1,130.4,84.1L130.4,84.1z"/>
<path class="st0" d="M139.1,80.6v7h-0.6l-3.6-3.4v3.4h-1.9v-7h0.6l3.6,3.5v-3.4H139.1z"/>
<path class="st0" d="M142.7,86.3l1.1-1.1c0.3,0.4,0.9,0.7,1.4,0.7c0.4,0,0.8-0.1,0.8-0.4s-0.7-0.7-1.4-1c-0.9-0.3-1.6-1.1-1.6-2
	c0.1-1.2,1.2-2.2,2.5-2.1c0.9-0.1,1.7,0.4,2.2,1.2l-1.1,1c-0.3-0.3-0.7-0.5-1.1-0.5c-0.4,0-0.6,0.2-0.6,0.4s0.5,0.4,1.2,0.7
	c1.1,0.4,1.8,1.1,1.8,2.1c-0.1,1.3-1.2,2.3-2.5,2.2c0,0,0,0-0.1,0C144.2,87.7,143.3,87.2,142.7,86.3z"/>
<path class="st0" d="M148.4,84.1c-0.1-2.1,1.5-3.9,3.6-4c2.1-0.1,3.9,1.5,4,3.6s-1.5,3.9-3.6,4c-0.1,0-0.1,0-0.2,0
	C150.2,87.8,148.5,86.2,148.4,84.1C148.4,84.1,148.4,84.1,148.4,84.1z M154.2,84.1c0-1.1-0.8-2-1.9-2s-2,0.8-2,1.9
	c0,1.1,0.8,2,1.9,2c0,0,0,0,0.1,0C153.3,86,154.1,85.2,154.2,84.1C154.2,84.1,154.2,84.1,154.2,84.1L154.2,84.1z"/>
<path class="st0" d="M156.6,84.1c0-2,1.7-3.7,3.7-3.6c0,0,0.1,0,0.1,0c0.9,0,1.9,0.4,2.6,1l-1,1.4c-0.4-0.4-0.9-0.6-1.5-0.7
	c-1-0.1-1.9,0.7-2,1.7c-0.1,1,0.7,1.9,1.7,2c0.1,0,0.2,0,0.3,0c0.6,0,1.1-0.3,1.6-0.7l1,1.4c-0.7,0.6-1.6,1-2.6,1
	C158.4,87.7,156.7,86.1,156.6,84.1C156.6,84.1,156.6,84.1,156.6,84.1z"/>
<path class="st0" d="M163.8,80.6h1.9v6.9h-1.9V80.6z"/>
<path class="st0" d="M168.7,82.3v1h2.2v1.5h-2.2v1h2.7v1.7h-4.5v-6.9h4.5v1.7H168.7z"/>
<path class="st0" d="M177.2,82.3h-1.7v5.2h-1.9v-5.2H172v-1.7h5.2V82.3z"/>
<path class="st0" d="M179.6,84.5l-2.1-3.9h2.1l1,2l1-2h2.1l-2.1,3.9v3h-1.9V84.5z"/>
</svg>
