<svg version="1.2" xmlns="http://www.w3.org/2000/svg" viewBox="0 0 311 114" width="311" height="114"><style>tspan{white-space:pre}.a{fill:#18a74a}.b{fill:#7ac587}.c{fill:#1d6131}.d{fill:#348948}.e{fill:#33a04a}.f{font-size: 29px;fill: #18a74a;font-weight: 300;font-family: "Poppins-Light", "Poppins"}</style><filter id="f0"><feFlood flood-color="#ffffff" flood-opacity="1" /><feBlend mode="normal" in2="SourceGraphic"/><feComposite in2="SourceAlpha" operator="in" /></filter><g filter="url(#f0)"><path class="a" d="m44.8 49.7c-9 0-16.3-7.3-16.3-16.4 0-9 7.3-16.3 16.3-16.3 9 0 16.3 7.3 16.3 16.3 0 9.1-7.3 16.4-16.3 16.4z"/><path class="b" d="m65.1 25.4c-6.8 0-12.3-5.5-12.3-12.3 0-6.8 5.5-12.3 12.3-12.3 6.8 0 12.3 5.5 12.3 12.3 0 6.8-5.5 12.3-12.3 12.3z"/><path class="c" d="m28.9 78l-12.9-12.9-12.9 12.9c1.7 1.7 3.7 3 5.9 4 2.2 0.9 4.6 1.3 7 1.3 2.4 0 4.7-0.4 7-1.3 2.2-1 4.2-2.3 5.9-4z"/><path class="d" d="m0.2 75.1v-57.5l28.7 28.7-28.7 28.8z"/><path class="e" d="m31.8 49.3l12.9 12.9-12.9 12.9-12.9-12.9z"/><text style="transform:matrix(1,0,0,1,199.49,112.7)" ><tspan x="0" y="0" class="f">Summit
</tspan></text><path class="c" d="m87.5 0.5h29v7.3h-9.9v30.2h-9.2v-30.2h-9.9z"/><path class="c" d="m144.1 7.8h-13.8v7.6h12.2v7.1h-12.2v8.2h13.8v7.3h-23v-37.5h23z"/><path class="c" d="m167.4 0.1c8.9 0 15.7 5 17.8 13.1h-10q-0.6-1.1-1.4-2-0.8-0.9-1.8-1.6-1.1-0.6-2.3-0.9-1.2-0.3-2.4-0.3c-5.6 0-9.5 4.2-9.5 10.8 0 6.6 3.9 10.8 9.5 10.8q1.2 0.1 2.4-0.2 1.2-0.3 2.3-1 1-0.6 1.8-1.6 0.8-0.9 1.4-2h10c-2.1 8.1-8.9 13.1-17.8 13.1-11.1 0-18.9-7.9-18.9-19.1 0-11.2 7.8-19.1 18.9-19.1z"/><path class="c" d="m214.2 22.6h-14.2v15.4h-9.1v-37.5h9.1v14.7h14.2v-14.7h9.1v37.5h-9.1z"/><path class="a" d="m92.4 46.2v33.3h13v4h-17.9v-37.3z"/><path fill-rule="evenodd" class="a" d="m132.6 75.2h-16.2l-3 8.3h-5.1l13.4-37.1h5.7l13.4 37.1h-5.2zm-8.1-22.8l-6.7 18.8h13.5z"/><path class="a" d="m176 46.2v37.3h-4.9l-19.6-29.7v29.7h-4.8v-37.3h4.8l19.6 29.6v-29.6z"/><path class="a" d="m201 45.7c8.1 0 14.5 4.1 17.3 11.3h-5.9c-2-4.5-6-7-11.4-7-7.8 0-13.6 5.7-13.6 14.8 0 9.2 5.8 14.8 13.6 14.8 5.5 0 9.4-2.5 11.4-7h5.9c-2.8 7.2-9.2 11.2-17.3 11.2-10.4 0-18.6-7.8-18.6-19 0-11.2 8.2-19.1 18.6-19.1z"/><path class="a" d="m245.6 50.2h-15.2v12.4h13.6v4h-13.6v12.9h15.2v4h-20.1v-37.3h20.1z"/><path fill-rule="evenodd" class="a" d="m265 46.2c8.8 0 12.9 4.9 12.9 11 0 4.8-2.6 9.3-8.8 10.7l9.3 15.6h-5.8l-8.9-15.2h-5.9v15.2h-4.8v-37.3zm0 4h-7.2v14.1h7.2c5.5 0 7.9-3 7.9-7.1 0-4.2-2.3-7-7.9-7z"/><path fill-rule="evenodd" class="a" d="m297.5 46.2c8.8 0 12.9 4.9 12.9 11 0 4.8-2.6 9.3-8.8 10.7l9.3 15.6h-5.8l-8.9-15.2h-5.9v15.2h-4.8v-37.3zm0 4h-7.2v14.1h7.2c5.5 0 7.9-3 7.9-7.1 0-4.2-2.4-7-7.9-7z"/></g></svg>