<svg id="Layer_1" data-name="Layer 1" xmlns="http://www.w3.org/2000/svg" viewBox="0 0 421.7 401.26"><defs><style>.cls-1,.cls-6{fill:#18a74a;}.cls-2{fill:#7ac587;}.cls-3{fill:#1d6131;}.cls-4{fill:#348948;}.cls-5{fill:#33a04a;}.cls-6{font-size:29.22px;font-family:Poppins-Light, Poppins;font-weight:300;}</style></defs><circle class="cls-1" cx="99.81" cy="169.33" r="16.33"/><circle class="cls-2" cx="120.07" cy="149.08" r="12.31"/><path class="cls-3" d="M83.88,214,71,201.1,58.08,214A18.23,18.23,0,0,0,83.88,214Z"/><polygon class="cls-4" points="55.17 211.08 55.17 153.6 83.91 182.34 55.17 211.08"/><rect class="cls-5" x="77.7" y="189.03" width="18.25" height="18.25" transform="translate(165.55 -3.35) rotate(45)"/><text class="cls-6" transform="translate(254.49 248.7)">Summit</text><path class="cls-3" d="M142.52,136.5h29v7.33h-9.95v30.22h-9.14V143.83h-9.95Z"/><path class="cls-3" d="M199.15,143.83H185.3v7.59h12.25v7.06H185.3v8.24h13.85v7.33h-23V136.5h23Z"/><path class="cls-3" d="M222.41,136.08c8.93,0,15.67,5,17.81,13.15H230.16a8.26,8.26,0,0,0-7.86-4.81c-5.61,0-9.46,4.17-9.46,10.8s3.85,10.8,9.46,10.8a8.26,8.26,0,0,0,7.86-4.81h10.06c-2.14,8.13-8.88,13.1-17.81,13.1-11.07,0-18.88-7.86-18.88-19.09S211.34,136.08,222.41,136.08Z"/><path class="cls-3" d="M269.2,158.59H255v15.46h-9.14V136.5H255v14.71H269.2V136.5h9.15v37.55H269.2Z"/><path class="cls-1" d="M147.39,182.23v33.32h13v4H142.52V182.23Z"/><path class="cls-1" d="M187.65,211.22H171.4l-3,8.29h-5.13l13.47-37.06h5.62l13.42,37.06h-5.13Zm-8.13-22.78-6.73,18.82h13.47Z"/><path class="cls-1" d="M231,182.18v37.33H226.1l-19.57-29.68v29.68h-4.87V182.18h4.87l19.57,29.63V182.18Z"/><path class="cls-1" d="M256,181.75c8.08,0,14.5,4.07,17.28,11.29h-5.83c-2-4.5-6-7-11.45-7-7.8,0-13.63,5.67-13.63,14.81S248.24,215.6,256,215.6c5.46,0,9.42-2.51,11.45-6.95h5.83c-2.78,7.17-9.2,11.18-17.28,11.18-10.42,0-18.61-7.81-18.61-19S245.62,181.75,256,181.75Z"/><path class="cls-1" d="M300.59,186.19H285.4v12.46H299v4H285.4V215.5h15.19v4H280.53V182.18h20.06Z"/><path class="cls-1" d="M320,182.23c8.77,0,12.94,4.87,12.94,11,0,4.76-2.62,9.3-8.88,10.69l9.36,15.62h-5.83l-8.88-15.24h-5.88v15.24H308V182.23Zm0,4h-7.17v14.12H320c5.51,0,7.91-3,7.91-7.16S325.56,186.24,320,186.24Z"/><path class="cls-1" d="M352.51,182.23c8.77,0,12.94,4.87,12.94,11,0,4.76-2.62,9.3-8.88,10.69l9.36,15.62H360.1l-8.87-15.24h-5.89v15.24h-4.86V182.23Zm0,4h-7.17v14.12h7.17c5.51,0,7.91-3,7.91-7.16S358.07,186.24,352.51,186.24Z"/></svg>