<svg id="Layer_1" data-name="Layer 1" xmlns="http://www.w3.org/2000/svg" viewBox="0 0 1080 744.43"><defs><style>.cls-1,.cls-6{fill:#18a84a;}.cls-2{fill:#7bc689;}.cls-3{fill:#1e6131;}.cls-4{fill:#348948;}.cls-5{fill:#34a04a;}.cls-6{font-size:71.68px;font-family:Poppins-Light, Poppins;font-weight:300;}</style></defs><circle class="cls-1" cx="267.63" cy="295.45" r="40.06"/><circle class="cls-2" cx="317.31" cy="245.77" r="30.2"/><path class="cls-3" d="M228.55,405,196.9,373.36,165.25,405A44.76,44.76,0,0,0,228.55,405Z"/><polygon class="cls-4" points="158.12 397.86 158.12 256.87 228.62 327.36 158.12 397.86"/><rect class="cls-5" x="213.38" y="343.77" width="44.76" height="44.76" transform="translate(327.96 -59.47) rotate(45)"/><text class="cls-6" transform="translate(647.05 490.13)">Summit</text><path class="cls-3" d="M372.39,214.92h71.23v18h-24.4V307H396.78V232.89H372.39Z"/><path class="cls-3" d="M511.3,232.89h-34v18.63h30v17.31h-30V289h34v18H454.89V214.92H511.3Z"/><path class="cls-3" d="M568.35,213.87c21.91,0,38.44,12.33,43.68,32.27H587.37c-3.8-7.87-10.75-11.81-19.28-11.81-13.77,0-23.22,10.24-23.22,26.5s9.45,26.5,23.22,26.5c8.53,0,15.48-3.93,19.28-11.81H612c-5.24,19.94-21.77,32.14-43.68,32.14-27.15,0-46.3-19.28-46.3-46.83S541.2,213.87,568.35,213.87Z"/><path class="cls-3" d="M683.12,269.1H648.23V307H625.8V214.92h22.43V251h34.89V214.92h22.44V307H683.12Z"/><path class="cls-1" d="M384.32,327.09v81.73h32v9.7H372.39V327.09Z"/><path class="cls-1" d="M483.1,398.19H443.22l-7.35,20.33H423.28l33.06-90.9h13.77L503,418.52H490.44Zm-19.94-55.88-16.53,46.18h33.05Z"/><path class="cls-1" d="M589.34,327v91.56H577.4l-48-72.8v72.8H517.46V327h11.93l48,72.67V327Z"/><path class="cls-1" d="M650.85,325.91c19.81,0,35.56,10,42.37,27.68H678.93c-5-11-14.69-17.18-28.08-17.18-19.15,0-33.45,13.9-33.45,36.33S631.7,409,650.85,409c13.39,0,23.09-6.17,28.08-17.06h14.29c-6.81,17.58-22.56,27.42-42.37,27.42-25.58,0-45.65-19.15-45.65-46.57S625.27,325.91,650.85,325.91Z"/><path class="cls-1" d="M760.11,336.8H722.86v30.56h33.32v9.84H722.86v31.49h37.25v9.83H710.92V327h49.19Z"/><path class="cls-1" d="M807.72,327.09c21.52,0,31.75,11.94,31.75,26.89,0,11.68-6.43,22.83-21.77,26.24l22.95,38.3h-14.3l-21.77-37.38H790.15v37.38H778.21V327.09Zm0,9.84H790.15v34.63h17.57c13.52,0,19.42-7.34,19.42-17.58S821.37,336.93,807.72,336.93Z"/><path class="cls-1" d="M887.48,327.09c21.51,0,31.74,11.94,31.74,26.89,0,11.68-6.43,22.83-21.78,26.24l23,38.3H906.1l-21.77-37.38H869.9v37.38H858V327.09Zm0,9.84H869.9v34.63h17.58c13.51,0,19.41-7.34,19.41-17.58S901.12,336.93,887.48,336.93Z"/></svg>